<?xml version="1.0" encoding="UTF-8" standalone="no"?>
<!-- Created with Inkscape (http://www.inkscape.org/) -->

<svg
   version="1.1"
   id="svg61818"
   width="800"
   height="800"
   viewBox="0 0 800 800"
   sodipodi:docname="gym-machine-vector-clipart-pdv.svg"
   inkscape:version="1.2 (dc2aedaf03, 2022-05-15)"
   xmlns:inkscape="http://www.inkscape.org/namespaces/inkscape"
   xmlns:sodipodi="http://sodipodi.sourceforge.net/DTD/sodipodi-0.dtd"
   xmlns="http://www.w3.org/2000/svg"
   xmlns:svg="http://www.w3.org/2000/svg">
  <defs
     id="defs61822">
    <clipPath
       clipPathUnits="userSpaceOnUse"
       id="clipPath61834">
      <path
         d="M 0,600 H 600 V 0 H 0 Z"
         id="path61832" />
    </clipPath>
  </defs>
  <sodipodi:namedview
     id="namedview61820"
     pagecolor="#ffffff"
     bordercolor="#000000"
     borderopacity="0.25"
     inkscape:showpageshadow="2"
     inkscape:pageopacity="0.0"
     inkscape:pagecheckerboard="0"
     inkscape:deskcolor="#d1d1d1"
     showgrid="false"
     inkscape:zoom="1.04625"
     inkscape:cx="400"
     inkscape:cy="400.4779"
     inkscape:window-width="1920"
     inkscape:window-height="1017"
     inkscape:window-x="-8"
     inkscape:window-y="-8"
     inkscape:window-maximized="1"
     inkscape:current-layer="g61826">
    <inkscape:page
       x="0"
       y="0"
       id="page61824"
       width="800"
       height="800" />
  </sodipodi:namedview>
  <g
     id="g61826"
     inkscape:groupmode="layer"
     inkscape:label="Page 1"
     transform="matrix(1.3333333,0,0,-1.3333333,0,800)">
    <g
       id="g61828">
      <g
         id="g61830"
         clip-path="url(#clipPath61834)">
        <g
           id="g61836"
           transform="translate(310.6758,97.0742)">
          <path
             d="m 0,0 c 83.113,0 150.9,2.965 150.9,6.6 0,3.635 -67.787,6.6 -150.9,6.6 -83.113,0 -150.9,-2.965 -150.9,-6.6 C -150.9,2.965 -83.113,0 0,0"
             style="fill:#e2e7eb;fill-opacity:1;fill-rule:evenodd;stroke:none"
             id="path61838" />
        </g>
        <g
           id="g61840"
           transform="translate(212.457,181.4219)">
          <path
             d="m 0,0 191.509,23.134 c 2.703,0.326 5.18,-1.618 5.508,-4.322 0.326,-2.703 -1.618,-5.18 -4.321,-5.507 L 1.187,-9.829 c -2.703,-0.326 -5.181,1.617 -5.507,4.32 v 0.001 C -4.646,-2.806 -2.703,-0.327 0,0"
             style="fill:#393c3d;fill-opacity:1;fill-rule:evenodd;stroke:none"
             id="path61842" />
        </g>
        <g
           id="g61844"
           transform="translate(397.3242,303.041)">
          <path
             d="M 0,0 H 0.001 C 2.986,-0.224 5.245,-2.849 5.022,-5.835 L -1.202,-88.96 c -0.224,-2.985 -2.849,-5.244 -5.834,-5.021 h -0.001 c -2.984,0.223 -5.244,2.848 -5.021,5.835 l 6.225,83.125 C -5.61,-2.036 -2.985,0.224 0,0"
             style="fill:#d9dde0;fill-opacity:1;fill-rule:evenodd;stroke:none"
             id="path61846" />
        </g>
        <g
           id="g61848"
           transform="translate(367.1113,555.9722)">
          <path
             d="M 0,0 C 0.314,4.196 3.971,7.343 8.167,7.029 12.362,6.715 15.51,3.058 15.195,-1.138 L 11.417,-51.6 c -2.288,-30.557 6.092,-52.065 14.471,-73.57 9.03,-23.177 18.061,-46.355 15.526,-80.215 l -4.446,-59.373 -15.196,1.137 4.446,59.372 c 2.288,30.557 -6.092,52.065 -14.471,73.571 -9.03,23.176 -18.061,46.353 -15.526,80.216 z"
             style="fill:#393c3d;fill-opacity:1;fill-rule:evenodd;stroke:none"
             id="path61850" />
        </g>
        <g
           id="g61852"
           transform="translate(375.5293,566.3594)">
          <path
             d="M 0,0 V 0 C 5.694,-0.426 10.005,-5.434 9.578,-11.128 L 7.501,-38.87 C 7.074,-44.564 2.066,-48.874 -3.627,-48.447 h -0.001 c -5.694,0.427 -10.004,5.434 -9.577,11.128 l 2.077,27.741 C -10.701,-3.883 -5.694,0.427 0,0"
             style="fill:#d9dde0;fill-opacity:1;fill-rule:evenodd;stroke:none"
             id="path61854" />
        </g>
        <g
           id="g61856"
           transform="translate(400.251,204.1064)">
          <path
             d="m 0,0 -17.274,-2.086 -1.34,11.093 c -0.575,4.75 2.842,9.106 7.593,9.68 v 0 c 4.751,0.574 9.107,-2.843 9.681,-7.593 z"
             style="fill:#6f757a;fill-opacity:1;fill-rule:evenodd;stroke:none"
             id="path61858" />
        </g>
        <g
           id="g61860"
           transform="translate(389.4785,220.2588)">
          <path
             d="m 0,0 c 3.332,0.402 6.359,-1.973 6.762,-5.304 0.402,-3.332 -1.972,-6.36 -5.305,-6.762 -3.331,-0.403 -6.358,1.972 -6.762,5.304 C -5.707,-3.43 -3.332,-0.402 0,0"
             style="fill:#bcbfc2;fill-opacity:1;fill-rule:evenodd;stroke:none"
             id="path61862" />
        </g>
        <path
           d="m 389.868,282.238 h 24.6 v 103.2 h -24.6 z"
           style="fill:#d9dde0;fill-opacity:1;fill-rule:evenodd;stroke:none"
           id="path61864" />
        <g
           id="g61866"
           transform="translate(422.2676,297.2393)">
          <path
             d="m 0,0 h -46.926 v -142.104 h 29.498 c 9.586,0 17.428,7.842 17.428,17.428 z"
             style="fill:#bcbfc2;fill-opacity:1;fill-rule:evenodd;stroke:none"
             id="path61868" />
        </g>
        <g
           id="g61870"
           transform="translate(341.917,134.7773)">
          <path
             d="m 0,0 h 20.162 l 9.864,-23.826 H 9.863 Z"
             style="fill:#d9dde0;fill-opacity:1;fill-rule:evenodd;stroke:none"
             id="path61872" />
        </g>
        <g
           id="g61874"
           transform="translate(363.876,130.4385)">
          <path
             d="M 0,0 4.657,-11.25 H -15.506 L -20.163,0 Z"
             style="fill:#c4cacf;fill-opacity:1;fill-rule:evenodd;stroke:none"
             id="path61876" />
        </g>
        <path
           d="m 333.243,104.564 h 62.4 v 8.1 h -62.4 z"
           style="fill:#bdc3c7;fill-opacity:1;fill-rule:evenodd;stroke:none"
           id="path61878" />
        <g
           id="g61880"
           transform="translate(258.8691,134.7773)">
          <path
             d="m 0,0 h -20.163 l -9.864,-23.826 h 20.163 z"
             style="fill:#d9dde0;fill-opacity:1;fill-rule:evenodd;stroke:none"
             id="path61882" />
        </g>
        <g
           id="g61884"
           transform="translate(236.9102,130.4385)">
          <path
             d="M 0,0 -4.658,-11.25 H 15.505 L 20.162,0 Z"
             style="fill:#c4cacf;fill-opacity:1;fill-rule:evenodd;stroke:none"
             id="path61886" />
        </g>
        <path
           d="m 205.143,104.564 h 62.399 v 8.1 h -62.399 z"
           style="fill:#bdc3c7;fill-opacity:1;fill-rule:evenodd;stroke:none"
           id="path61888" />
        <g
           id="g61890"
           transform="translate(234.041,232.2354)">
          <path
             d="m 0,0 c 6.679,0 13.304,-1.241 19.51,-3.677 l 127.284,-44.232 c 13.778,-2.577 24.207,-14.665 24.207,-29.192 0,-16.402 -13.297,-29.699 -29.7,-29.699 H 0 c -29.491,0 -53.399,23.908 -53.399,53.4 C -53.399,-23.908 -29.491,0 0,0"
             style="fill:#d9dde0;fill-opacity:1;fill-rule:evenodd;stroke:none"
             id="path61892" />
        </g>
        <g
           id="g61894"
           transform="translate(234.041,232.2354)">
          <path
             d="M 0,0 C 6.679,0 13.304,-1.241 19.51,-3.677 L 79.6,-24.559 c 0.893,-0.647 1.777,-1.301 2.65,-1.962 16.181,-12.237 37.556,-33.627 30.174,-56.115 -1.848,-5.63 -4.885,-10.563 -9.151,-14.682 -4.34,-4.192 -9.652,-7.245 -15.416,-9.482 H 0 c -29.491,0 -53.399,23.908 -53.399,53.4 C -53.399,-23.908 -29.491,0 0,0"
             style="fill:#ccd0d4;fill-opacity:1;fill-rule:evenodd;stroke:none"
             id="path61896" />
        </g>
        <g
           id="g61898"
           transform="translate(232.2949,235.8437)">
          <path
             d="m 0,0 c 7.129,0 14.202,-1.324 20.826,-3.925 l 29.758,-10.342 c 27.355,-12.272 69.609,-42.526 60.297,-70.897 -11.254,-34.287 -66.151,-26.833 -94.024,-28.853 H 0 c -31.485,0 -57.009,25.524 -57.009,57.008 C -57.009,-25.523 -31.485,0 0,0"
             style="fill:#6f757a;fill-opacity:1;fill-rule:evenodd;stroke:none"
             id="path61900" />
        </g>
        <g
           id="g61902"
           transform="translate(234.042,133.835)">
          <path
             d="m 0,0 c 24.785,0 45,20.216 45,45.001 0,24.785 -20.215,45 -45,45 -24.786,0 -45.001,-20.215 -45.001,-45 C -45.001,20.216 -24.786,0 0,0"
             style="fill:#d9dde0;fill-opacity:1;fill-rule:evenodd;stroke:none"
             id="path61904" />
        </g>
        <g
           id="g61906"
           transform="translate(375.3418,134.4365)">
          <path
             d="M 0,0 C 11.4,0 20.699,9.299 20.699,20.699 20.699,32.1 11.4,41.398 0,41.398 -11.4,41.398 -20.698,32.1 -20.698,20.699 -20.698,9.299 -11.4,0 0,0"
             style="fill:#bcbfc2;fill-opacity:1;fill-rule:evenodd;stroke:none"
             id="path61908" />
        </g>
        <g
           id="g61910"
           transform="translate(234.042,148.1465)">
          <path
             d="M 0,0 C 16.903,0 30.688,13.786 30.688,30.689 30.688,47.592 16.903,61.378 0,61.378 -16.903,61.378 -30.689,47.592 -30.689,30.689 -30.689,13.786 -16.903,0 0,0"
             style="fill:#bcbfc2;fill-opacity:1;fill-rule:evenodd;stroke:none"
             id="path61912" />
        </g>
        <g
           id="g61914"
           transform="translate(414.4678,385.4385)">
          <path
             d="M 0,0 19.501,83.1 -29.399,9.3 -24.6,0 Z"
             style="fill:#95999e;fill-opacity:1;fill-rule:evenodd;stroke:none"
             id="path61916" />
        </g>
        <g
           id="g61918"
           transform="translate(449.5059,484.3062)">
          <path
             d="m 0,0 -72.9,-110.02 -7.075,4.683 72.9,110.021 z"
             style="fill:#4e5257;fill-opacity:1;fill-rule:evenodd;stroke:none"
             id="path61920" />
        </g>
        <g
           id="g61922"
           transform="translate(257.416,181.4385)">
          <path
             d="m 0,0 h 192.901 c 2.723,0 4.95,-2.228 4.95,-4.95 0,-2.723 -2.227,-4.95 -4.95,-4.95 H 0 c -2.723,0 -4.949,2.227 -4.949,4.95 C -4.949,-2.228 -2.723,0 0,0"
             style="fill:#535b61;fill-opacity:1;fill-rule:evenodd;stroke:none"
             id="path61924" />
        </g>
        <g
           id="g61926"
           transform="translate(423.3975,280.6143)">
          <path
             d="m 0,0 h 0.001 c 2.951,0.5 5.774,-1.506 6.274,-4.458 l 13.921,-82.188 c 0.5,-2.952 -1.506,-5.775 -4.457,-6.275 -2.952,-0.5 -5.775,1.506 -6.275,4.458 L -4.457,-6.275 C -4.957,-3.323 -2.951,-0.5 0,0"
             style="fill:#d9dde0;fill-opacity:1;fill-rule:evenodd;stroke:none"
             id="path61928" />
        </g>
        <g
           id="g61930"
           transform="translate(333.3262,518.8877)">
          <path
             d="m 0,0 c -0.703,4.149 2.092,8.082 6.24,8.785 4.149,0.702 8.081,-2.092 8.784,-6.24 l 8.451,-49.893 c 5.118,-30.213 18.417,-49.078 31.715,-67.943 14.333,-20.329 28.665,-40.66 34.336,-74.139 l 9.943,-58.702 -15.025,-2.545 -9.942,58.702 c -5.117,30.212 -18.417,49.078 -31.716,67.942 -14.332,20.33 -28.664,40.66 -34.335,74.14 z"
             style="fill:#6e7173;fill-opacity:1;fill-rule:evenodd;stroke:none"
             id="path61932" />
        </g>
        <g
           id="g61934"
           transform="translate(339.0039,530.9927)">
          <path
             d="m 0,0 v 0 c 5.631,0.954 11.017,-2.872 11.97,-8.502 l 4.645,-27.429 c 0.954,-5.63 -2.872,-11.016 -8.502,-11.969 -5.63,-0.954 -11.015,2.872 -11.969,8.502 L -8.502,-11.97 C -9.456,-6.34 -5.631,-0.954 0,0"
             style="fill:#d9dde0;fill-opacity:1;fill-rule:evenodd;stroke:none"
             id="path61936" />
        </g>
        <g
           id="g61938"
           transform="translate(446.5752,181.4385)">
          <path
             d="m 0,0 h -17.399 v 11.174 c 0,4.785 3.914,8.7 8.699,8.7 4.786,0 8.7,-3.915 8.7,-8.7 z"
             style="fill:#6f757a;fill-opacity:1;fill-rule:evenodd;stroke:none"
             id="path61940" />
        </g>
        <g
           id="g61942"
           transform="translate(437.8174,186.6123)">
          <path
             d="m 0,0 c 3.348,0 6.077,2.73 6.077,6.077 0,3.347 -2.729,6.077 -6.077,6.077 -3.347,0 -6.076,-2.73 -6.076,-6.077 C -6.076,2.73 -3.347,0 0,0"
             style="fill:#bcbfc2;fill-opacity:1;fill-rule:evenodd;stroke:none"
             id="path61944" />
        </g>
      </g>
    </g>
  </g>
</svg>
